<?xml version="1.0" encoding="UTF-8"?>
<svg xmlns="http://www.w3.org/2000/svg" xmlns:xlink="http://www.w3.org/1999/xlink" viewBox="0 0 64 64" width="64px" height="64px">
<defs>
<radialGradient id="radial0" gradientUnits="userSpaceOnUse" cx="88.349274" cy="103.99263" fx="88.349274" fy="103.99263" r="67.650032" gradientTransform="matrix(0.372093,0,0,0.372093,0,0)">
<!-- <stop offset="0" style="stop-color:rgb(68.627453%,93.333334%,100%);stop-opacity:1;"/>
<stop offset="0.193" style="stop-color:rgb(73.333335%,94.509804%,100%);stop-opacity:1;"/>
<stop offset="0.703" style="stop-color:rgb(84.313726%,97.254902%,100%);stop-opacity:1;"/>
<stop offset="1" style="stop-color:rgb(88.235295%,98.039216%,100%);stop-opacity:1;"/> -->
</radialGradient>
<linearGradient id="linear0" gradientUnits="userSpaceOnUse" x1="86.390327" y1="15.93423" x2="86.390327" y2="73.020576" gradientTransform="matrix(0.372093,0,0,0.372093,0,0)">
<stop offset="0.122" style="stop-color:rgb(36.862746%,42.745098%,48.235294%);stop-opacity:1;"/>
<stop offset="0.191" style="stop-color:rgb(36.470589%,41.960785%,47.450981%);stop-opacity:1;"/>
<stop offset="1" style="stop-color:rgb(31.764707%,36.078432%,41.176471%);stop-opacity:1;"/>
</linearGradient>
<linearGradient id="linear1" gradientUnits="userSpaceOnUse" x1="86.000633" y1="142.569107" x2="86.000633" y2="60.381271" gradientTransform="matrix(0.372093,0,0,0.372093,0,0)">
<stop offset="0" style="stop-color:rgb(100%,34.509805%,25.098041%);stop-opacity:1;"/>
<stop offset="0.007" style="stop-color:rgb(100%,34.509805%,25.098041%);stop-opacity:1;"/>
<stop offset="0.989" style="stop-color:rgb(98.039216%,32.156864%,54.901963%);stop-opacity:1;"/>
<stop offset="1" style="stop-color:rgb(98.039216%,32.156864%,54.901963%);stop-opacity:1;"/>
</linearGradient>
</defs>
<g id="surface23636600">
<path style=" stroke:none;fill-rule:nonzero;fill:rgb(100%,100%,100%);fill-opacity:1;" d="M 32 64 C 14.328125 64 0 49.671875 0 32 C 0 14.328125 14.328125 0 32 0 C 49.671875 0 64 14.328125 64 32 C 64 49.671875 49.671875 64 32 64 Z M 32 64 "/>
<path style=" stroke:none;fill-rule:nonzero;fill:url(#radial0);" d="M 47.53125 36.253906 C 47.65625 37.011719 48.367188 37.539062 49.144531 37.539062 L 52.546875 37.539062 C 54.585938 37.539062 56.230469 39.308594 56.023438 41.386719 C 55.835938 43.199219 54.207031 44.519531 52.386719 44.519531 L 49.058594 44.519531 C 48.113281 44.519531 47.367188 45.355469 47.53125 46.332031 C 47.65625 47.09375 48.367188 47.621094 49.144531 47.621094 L 51.773438 47.621094 C 52.734375 47.621094 53.609375 48.007812 54.238281 48.644531 C 54.875 49.273438 55.261719 50.148438 55.261719 51.109375 C 55.261719 53.042969 53.703125 54.601562 51.773438 54.601562 L 11.449219 54.601562 C 10.273438 54.601562 9.203125 54.117188 8.433594 53.351562 C 7.667969 52.582031 7.1875 51.511719 7.1875 50.335938 C 7.1875 47.976562 9.09375 46.070312 11.449219 46.070312 L 19.59375 46.070312 C 20.234375 46.070312 20.816406 45.804688 21.238281 45.386719 C 21.65625 44.96875 21.917969 44.386719 21.917969 43.742188 C 21.917969 42.457031 20.878906 41.417969 19.59375 41.417969 L 10.675781 41.417969 C 8.636719 41.417969 6.992188 39.648438 7.199219 37.570312 C 7.386719 35.757812 9.015625 34.4375 10.839844 34.4375 L 22.695312 34.4375 C 24.019531 34.4375 25.089844 33.328125 25.019531 31.988281 C 24.949219 30.730469 23.820312 29.785156 22.5625 29.785156 L 10.675781 29.785156 C 8.636719 29.785156 6.992188 28.019531 7.199219 25.941406 C 7.386719 24.125 9.023438 22.808594 10.839844 22.808594 L 16.101562 22.808594 C 16.636719 22.808594 17.125 22.589844 17.476562 22.242188 C 17.824219 21.890625 18.042969 21.402344 18.042969 20.867188 C 18.042969 19.796875 17.171875 18.929688 16.101562 18.929688 L 13 18.929688 C 11.824219 18.929688 10.753906 18.449219 9.984375 17.679688 C 9.21875 16.914062 8.738281 15.84375 8.738281 14.664062 C 8.738281 12.308594 10.644531 10.398438 13 10.398438 L 50.996094 10.398438 C 53.488281 10.398438 55.496094 12.5625 55.238281 15.097656 C 55.015625 17.316406 53.796875 18.929688 51.570312 18.929688 L 50.222656 18.929688 C 48.292969 18.929688 46.734375 20.488281 46.734375 22.417969 C 46.734375 23.382812 47.121094 24.257812 47.757812 24.886719 C 48.382812 25.519531 49.261719 25.910156 50.222656 25.910156 L 52.546875 25.910156 C 55.039062 25.910156 57.046875 28.074219 56.789062 30.609375 C 56.566406 32.824219 54.574219 34.4375 52.347656 34.4375 L 49.058594 34.4375 C 48.113281 34.4375 47.367188 35.277344 47.53125 36.253906 Z M 47.53125 36.253906 "/>
<path style=" stroke:none;fill-rule:nonzero;fill:url(#linear0);" d="M 21.433594 11.949219 L 22.324219 11.949219 C 22.675781 11.949219 22.980469 12.1875 23.074219 12.527344 L 24.5625 18.105469 L 24.722656 18.105469 L 26.144531 12.539062 C 26.234375 12.195312 26.542969 11.953125 26.894531 11.953125 L 27.800781 11.953125 C 28.328125 11.953125 28.703125 12.46875 28.539062 12.972656 L 25.921875 21.257812 L 25.921875 26.855469 C 25.921875 27.285156 25.574219 27.632812 25.144531 27.632812 L 24.160156 27.632812 C 23.730469 27.632812 23.382812 27.285156 23.382812 26.855469 L 23.382812 21.242188 L 20.699219 12.964844 C 20.535156 12.464844 20.910156 11.949219 21.433594 11.949219 Z M 28.753906 18.585938 C 28.753906 17.707031 29.058594 17.003906 29.664062 16.484375 C 30.269531 15.964844 31.085938 15.703125 32.109375 15.703125 C 33.042969 15.703125 33.804688 15.976562 34.398438 16.527344 C 34.992188 17.074219 35.289062 17.78125 35.289062 18.648438 L 35.289062 24.511719 C 35.289062 25.484375 35 26.246094 34.417969 26.800781 C 33.832031 27.355469 33.035156 27.632812 32.007812 27.632812 C 31.019531 27.632812 30.234375 27.34375 29.636719 26.773438 C 29.046875 26.203125 28.75 25.433594 28.75 24.472656 L 28.75 18.585938 Z M 31.070312 24.683594 C 31.070312 24.992188 31.148438 25.238281 31.316406 25.40625 C 31.476562 25.574219 31.703125 25.660156 32.003906 25.660156 C 32.308594 25.660156 32.546875 25.574219 32.726562 25.398438 C 32.90625 25.230469 33 24.988281 33 24.683594 L 33 18.496094 C 33 18.25 32.90625 18.050781 32.722656 17.898438 C 32.539062 17.746094 32.296875 17.667969 32.003906 17.667969 C 31.726562 17.667969 31.5 17.746094 31.328125 17.898438 C 31.15625 18.050781 31.070312 18.25 31.070312 18.496094 Z M 43.632812 16.765625 L 43.632812 26.855469 C 43.632812 27.285156 43.285156 27.632812 42.855469 27.632812 L 42.15625 27.632812 C 41.726562 27.632812 41.378906 27.285156 41.378906 26.855469 L 41.378906 26.421875 C 40.902344 26.773438 40.535156 27.03125 40.082031 27.269531 C 39.636719 27.507812 39.199219 27.632812 38.777344 27.632812 C 38.257812 27.632812 37.867188 27.464844 37.601562 27.125 C 37.335938 26.789062 37.207031 26.285156 37.207031 25.605469 L 37.207031 16.765625 C 37.207031 16.335938 37.554688 15.988281 37.980469 15.988281 L 38.679688 15.988281 C 39.109375 15.988281 39.457031 16.335938 39.457031 16.765625 L 39.457031 24.820312 C 39.457031 25.085938 39.503906 25.28125 39.601562 25.402344 C 39.691406 25.519531 39.847656 25.585938 40.054688 25.585938 C 40.226562 25.585938 40.433594 25.503906 40.683594 25.34375 C 40.9375 25.183594 41.171875 24.980469 41.378906 24.734375 L 41.378906 16.765625 C 41.378906 16.335938 41.726562 15.988281 42.15625 15.988281 L 42.855469 15.988281 C 43.285156 15.988281 43.632812 16.335938 43.632812 16.765625 Z M 43.632812 16.765625 "/>
<path style=" stroke:none;fill-rule:nonzero;fill:rgb(100%,100%,100%);fill-opacity:1;" d="M 48.574219 34.84375 C 48.574219 32.21875 46.402344 30.09375 43.726562 30.09375 C 39.90625 29.933594 35.992188 29.867188 32 29.871094 C 28.007812 29.867188 24.097656 29.9375 20.273438 30.09375 C 17.597656 30.09375 15.425781 32.222656 15.425781 34.84375 C 15.265625 36.917969 15.195312 38.996094 15.199219 41.074219 C 15.195312 43.148438 15.265625 45.226562 15.425781 47.300781 C 15.425781 49.929688 17.597656 52.054688 20.273438 52.054688 C 24.097656 52.210938 28.011719 52.277344 32 52.273438 C 35.992188 52.28125 39.90625 52.210938 43.726562 52.054688 C 46.402344 52.054688 48.574219 49.929688 48.574219 47.300781 C 48.734375 45.226562 48.808594 43.148438 48.800781 41.074219 C 48.808594 38.996094 48.734375 36.917969 48.574219 34.84375 Z M 48.574219 34.84375 "/>
<path style=" stroke:none;fill-rule:nonzero;fill:url(#linear1);" d="M 49.59375 34.949219 C 49.59375 32.226562 47.285156 30.019531 44.445312 30.019531 C 40.386719 29.851562 36.238281 29.777344 32 29.785156 C 27.761719 29.777344 23.613281 29.851562 19.554688 30.019531 C 16.714844 30.019531 14.410156 32.226562 14.410156 34.949219 C 14.238281 37.105469 14.164062 39.261719 14.164062 41.421875 C 14.164062 43.570312 14.238281 45.730469 14.410156 47.886719 C 14.410156 50.617188 16.714844 52.824219 19.554688 52.824219 C 23.613281 52.984375 27.761719 53.058594 32 53.046875 C 36.238281 53.054688 40.386719 52.984375 44.445312 52.824219 C 47.285156 52.824219 49.59375 50.617188 49.59375 47.886719 C 49.761719 45.730469 49.84375 43.570312 49.835938 41.421875 C 49.84375 39.261719 49.761719 37.105469 49.59375 34.949219 Z M 49.59375 34.949219 "/>
<path style=" stroke:none;fill-rule:nonzero;fill:rgb(100%,100%,100%);fill-opacity:1;" d="M 45.25 44.527344 C 44.5625 44.527344 43.996094 45.054688 43.941406 45.730469 C 43.933594 45.746094 43.933594 45.769531 43.941406 45.789062 C 43.933594 45.804688 43.933594 45.820312 43.933594 45.835938 L 43.933594 45.945312 C 43.902344 46.402344 43.832031 46.574219 43.785156 46.628906 C 43.699219 46.746094 43.523438 46.808594 43.257812 46.808594 C 42.925781 46.808594 42.816406 46.683594 42.753906 46.589844 C 42.675781 46.464844 42.585938 46.1875 42.585938 45.519531 L 42.585938 43.695312 L 46.328125 43.695312 C 46.460938 43.695312 46.5625 43.605469 46.570312 43.472656 L 46.5625 43.472656 L 46.5625 40.6875 C 46.5625 39.601562 46.28125 38.75 45.738281 38.160156 C 45.183594 37.5625 44.382812 37.253906 43.367188 37.253906 C 42.375 37.253906 41.539062 37.585938 40.917969 38.222656 C 40.28125 38.859375 39.964844 39.679688 39.964844 40.6875 L 39.964844 45.582031 C 39.964844 46.675781 40.257812 47.550781 40.824219 48.203125 C 41.40625 48.847656 42.203125 49.171875 43.203125 49.171875 C 44.3125 49.171875 45.160156 48.863281 45.726562 48.257812 C 46.214844 47.707031 46.5 46.929688 46.546875 45.945312 L 46.554688 45.699219 C 46.492188 45.039062 45.933594 44.527344 45.25 44.527344 Z M 42.585938 40.671875 C 42.585938 40.164062 42.671875 39.933594 42.75 39.832031 C 42.855469 39.691406 43.019531 39.628906 43.273438 39.628906 C 43.511719 39.628906 43.679688 39.691406 43.773438 39.824219 C 43.851562 39.941406 43.949219 40.171875 43.949219 40.671875 L 43.949219 41.542969 L 42.585938 41.542969 Z M 42.585938 40.671875 "/>
<path style=" stroke:none;fill-rule:nonzero;fill:rgb(100%,100%,100%);fill-opacity:1;" d="M 29.574219 37.535156 C 28.867188 37.535156 28.292969 38.109375 28.292969 38.816406 L 28.292969 45.945312 C 28.136719 46.132812 27.953125 46.292969 27.746094 46.425781 C 27.5 46.589844 27.367188 46.613281 27.304688 46.613281 C 27.128906 46.613281 27.082031 46.558594 27.074219 46.535156 C 27.042969 46.496094 26.988281 46.378906 26.988281 46.105469 L 26.988281 38.816406 C 26.988281 38.109375 26.414062 37.535156 25.707031 37.535156 C 25 37.535156 24.429688 38.109375 24.429688 38.816406 L 24.429688 46.859375 C 24.429688 47.554688 24.570312 48.097656 24.847656 48.457031 C 25.132812 48.84375 25.558594 49.039062 26.125 49.039062 C 26.558594 49.039062 26.996094 48.914062 27.453125 48.664062 C 27.738281 48.5 28.015625 48.292969 28.292969 48.035156 L 28.292969 48.039062 C 28.292969 48.664062 28.800781 49.171875 29.425781 49.171875 L 29.71875 49.171875 C 30.34375 49.171875 30.851562 48.664062 30.851562 48.039062 L 30.851562 38.816406 C 30.851562 38.109375 30.28125 37.535156 29.574219 37.535156 Z M 29.574219 37.535156 "/>
<path style=" stroke:none;fill-rule:nonzero;fill:rgb(100%,100%,100%);fill-opacity:1;" d="M 23.640625 33.664062 L 18.5625 33.664062 C 17.847656 33.664062 17.265625 34.242188 17.265625 34.957031 L 17.265625 34.964844 C 17.265625 35.679688 17.847656 36.261719 18.5625 36.261719 L 19.691406 36.261719 L 19.691406 47.480469 C 19.691406 48.253906 20.316406 48.882812 21.09375 48.882812 C 21.867188 48.882812 22.496094 48.257812 22.496094 47.480469 L 22.503906 36.261719 L 23.640625 36.261719 C 24.355469 36.261719 24.933594 35.679688 24.933594 34.964844 L 24.933594 34.957031 C 24.933594 34.242188 24.355469 33.664062 23.640625 33.664062 Z M 23.640625 33.664062 "/>
<path style=" stroke:none;fill-rule:nonzero;fill:rgb(100%,100%,100%);fill-opacity:1;" d="M 38.863281 40.363281 C 38.863281 39.425781 38.667969 38.695312 38.296875 38.191406 C 37.910156 37.664062 37.335938 37.394531 36.597656 37.394531 C 36.242188 37.394531 35.875 37.484375 35.527344 37.6875 C 35.332031 37.789062 35.15625 37.921875 34.976562 38.066406 L 34.976562 34.949219 C 34.976562 34.238281 34.402344 33.664062 33.691406 33.664062 C 32.980469 33.664062 32.402344 34.238281 32.402344 34.949219 L 32.402344 48.472656 C 32.441406 48.863281 32.757812 49.171875 33.171875 49.171875 L 34.203125 49.171875 C 34.636719 49.171875 34.976562 48.824219 34.976562 48.394531 L 34.976562 48.226562 C 35.117188 48.441406 35.332031 48.667969 35.527344 48.761719 C 35.882812 48.929688 36.289062 49.015625 36.722656 49.015625 C 37.410156 49.015625 37.945312 48.785156 38.320312 48.320312 C 38.683594 47.859375 38.871094 47.21875 38.871094 46.394531 Z M 36.25 46.109375 C 36.25 46.464844 36.179688 46.628906 36.109375 46.714844 C 36.085938 46.746094 36.007812 46.84375 35.738281 46.84375 C 35.605469 46.84375 35.472656 46.820312 35.339844 46.761719 C 35.234375 46.707031 35.109375 46.613281 34.984375 46.488281 L 34.984375 39.882812 C 35.085938 39.789062 35.179688 39.710938 35.28125 39.664062 C 35.621094 39.503906 35.921875 39.578125 36.070312 39.78125 C 36.195312 39.929688 36.25 40.175781 36.25 40.488281 C 36.25 40.488281 36.25 46.109375 36.25 46.109375 Z M 36.25 46.109375 "/>
</g>
</svg>
